<mxfile host="app.diagrams.net" modified="2024-01-22T08:35:48.671Z" agent="Mozilla/5.0 (Windows NT 10.0; Win64; x64; rv:121.0) Gecko/20100101 Firefox/121.0" etag="7W6nGENYRjbBYwcKMGS9" version="22.1.18" type="device">
  <diagram id="R2lEEEUBdFMjLlhIrx00" name="Page-1">
    <mxGraphModel dx="200" dy="1603" grid="1" gridSize="10" guides="1" tooltips="1" connect="1" arrows="1" fold="1" page="1" pageScale="1" pageWidth="850" pageHeight="1100" background="#ffffff" math="0" shadow="0" extFonts="Permanent Marker^https://fonts.googleapis.com/css?family=Permanent+Marker">
      <root>
        <mxCell id="0" />
        <mxCell id="1" parent="0" />
        <mxCell id="qyiHie28js0ikZZEkP9E-11" style="edgeStyle=orthogonalEdgeStyle;rounded=0;orthogonalLoop=1;jettySize=auto;html=1;exitX=0.5;exitY=0;exitDx=0;exitDy=0;entryX=0.5;entryY=1;entryDx=0;entryDy=0;startArrow=ERoneToMany;startFill=0;endArrow=ERoneToMany;endFill=0;" parent="1" source="0OOcQr5qA5jI043Dut4M-147" target="0OOcQr5qA5jI043Dut4M-142" edge="1">
          <mxGeometry relative="1" as="geometry">
            <mxPoint x="800" y="417.5" as="targetPoint" />
          </mxGeometry>
        </mxCell>
        <mxCell id="0OOcQr5qA5jI043Dut4M-141" value="Customer" style="swimlane;childLayout=stackLayout;horizontal=1;startSize=50;horizontalStack=0;rounded=1;fontSize=14;fontStyle=0;strokeWidth=2;resizeParent=0;resizeLast=1;shadow=0;dashed=0;align=center;arcSize=4;whiteSpace=wrap;html=1;" vertex="1" parent="1">
          <mxGeometry x="920" width="160" height="120" as="geometry" />
        </mxCell>
        <mxCell id="0OOcQr5qA5jI043Dut4M-142" value="&lt;div&gt;first name&lt;/div&gt;&lt;div&gt;last name &lt;br&gt;&lt;/div&gt;&lt;div&gt;email&lt;/div&gt;&lt;div&gt;status&lt;br&gt;&lt;/div&gt;" style="align=left;strokeColor=none;fillColor=none;spacingLeft=4;fontSize=12;verticalAlign=top;resizable=0;rotatable=0;part=1;html=1;" vertex="1" parent="0OOcQr5qA5jI043Dut4M-141">
          <mxGeometry y="50" width="160" height="70" as="geometry" />
        </mxCell>
        <mxCell id="0OOcQr5qA5jI043Dut4M-143" value="Notification" style="swimlane;childLayout=stackLayout;horizontal=1;startSize=50;horizontalStack=0;rounded=1;fontSize=14;fontStyle=0;strokeWidth=2;resizeParent=0;resizeLast=1;shadow=0;dashed=0;align=center;arcSize=4;whiteSpace=wrap;html=1;" vertex="1" parent="1">
          <mxGeometry x="1160" width="160" height="90" as="geometry" />
        </mxCell>
        <mxCell id="0OOcQr5qA5jI043Dut4M-144" value="&lt;div&gt;time stamp&lt;/div&gt;&lt;div&gt;type&lt;br&gt;&lt;/div&gt;" style="align=left;strokeColor=none;fillColor=none;spacingLeft=4;fontSize=12;verticalAlign=top;resizable=0;rotatable=0;part=1;html=1;" vertex="1" parent="0OOcQr5qA5jI043Dut4M-143">
          <mxGeometry y="50" width="160" height="40" as="geometry" />
        </mxCell>
        <mxCell id="0OOcQr5qA5jI043Dut4M-145" value="Borrow Period" style="swimlane;childLayout=stackLayout;horizontal=1;startSize=50;horizontalStack=0;rounded=1;fontSize=14;fontStyle=0;strokeWidth=2;resizeParent=0;resizeLast=1;shadow=0;dashed=0;align=center;arcSize=4;whiteSpace=wrap;html=1;" vertex="1" parent="1">
          <mxGeometry x="1160" y="160" width="160" height="110" as="geometry" />
        </mxCell>
        <mxCell id="0OOcQr5qA5jI043Dut4M-146" value="&lt;div&gt;start date&lt;/div&gt;&lt;div&gt;end date&lt;/div&gt;&lt;div&gt;is returned&lt;br&gt;&lt;/div&gt;" style="align=left;strokeColor=none;fillColor=none;spacingLeft=4;fontSize=12;verticalAlign=top;resizable=0;rotatable=0;part=1;html=1;" vertex="1" parent="0OOcQr5qA5jI043Dut4M-145">
          <mxGeometry y="50" width="160" height="60" as="geometry" />
        </mxCell>
        <mxCell id="0OOcQr5qA5jI043Dut4M-147" value="Book" style="swimlane;childLayout=stackLayout;horizontal=1;startSize=50;horizontalStack=0;rounded=1;fontSize=14;fontStyle=0;strokeWidth=2;resizeParent=0;resizeLast=1;shadow=0;dashed=0;align=center;arcSize=4;whiteSpace=wrap;html=1;" vertex="1" parent="1">
          <mxGeometry x="920" y="160" width="160" height="90" as="geometry" />
        </mxCell>
        <mxCell id="0OOcQr5qA5jI043Dut4M-148" value="&lt;div&gt;title&lt;/div&gt;&lt;div&gt;author&lt;/div&gt;&lt;div&gt;&lt;br&gt;&lt;/div&gt;" style="align=left;strokeColor=none;fillColor=none;spacingLeft=4;fontSize=12;verticalAlign=top;resizable=0;rotatable=0;part=1;html=1;" vertex="1" parent="0OOcQr5qA5jI043Dut4M-147">
          <mxGeometry y="50" width="160" height="40" as="geometry" />
        </mxCell>
        <mxCell id="0OOcQr5qA5jI043Dut4M-149" value="" style="fontSize=12;html=1;endArrow=ERzeroToMany;endFill=1;rounded=0;entryX=0;entryY=0.5;entryDx=0;entryDy=0;startArrow=ERone;startFill=0;" edge="1" parent="1" target="0OOcQr5qA5jI043Dut4M-144">
          <mxGeometry width="100" height="100" relative="1" as="geometry">
            <mxPoint x="1080" y="70" as="sourcePoint" />
            <mxPoint x="1200" y="70" as="targetPoint" />
          </mxGeometry>
        </mxCell>
        <mxCell id="0OOcQr5qA5jI043Dut4M-150" style="rounded=0;orthogonalLoop=1;jettySize=auto;html=1;exitX=1;exitY=0.75;exitDx=0;exitDy=0;entryX=0;entryY=0.25;entryDx=0;entryDy=0;startArrow=ERone;startFill=0;endArrow=ERmany;endFill=0;edgeStyle=orthogonalEdgeStyle;" edge="1" parent="1" source="0OOcQr5qA5jI043Dut4M-142" target="0OOcQr5qA5jI043Dut4M-145">
          <mxGeometry relative="1" as="geometry">
            <mxPoint x="1110" y="305" as="sourcePoint" />
            <mxPoint x="1261" y="341" as="targetPoint" />
          </mxGeometry>
        </mxCell>
        <mxCell id="0OOcQr5qA5jI043Dut4M-151" style="rounded=0;orthogonalLoop=1;jettySize=auto;html=1;exitX=1;exitY=0.25;exitDx=0;exitDy=0;entryX=-0.012;entryY=0.15;entryDx=0;entryDy=0;startArrow=ERone;startFill=0;endArrow=ERmany;endFill=0;entryPerimeter=0;" edge="1" parent="1" source="0OOcQr5qA5jI043Dut4M-148" target="0OOcQr5qA5jI043Dut4M-146">
          <mxGeometry relative="1" as="geometry">
            <mxPoint x="1060" y="430" as="sourcePoint" />
            <mxPoint x="1259" y="388" as="targetPoint" />
          </mxGeometry>
        </mxCell>
      </root>
    </mxGraphModel>
  </diagram>
</mxfile>
